<svg width="800" height="800" viewBox="0 0 800 800" fill="none" xmlns="http://www.w3.org/2000/svg">
<path fill-rule="evenodd" clip-rule="evenodd" d="M208.333 183.333C208.333 123.503 256.836 75 316.667 75C376.497 75 425 123.502 425 183.333C425 243.164 376.497 291.667 316.667 291.667H100C86.193 291.667 75 280.474 75 266.667C75 252.86 86.193 241.667 100 241.667H316.667C348.883 241.667 375 215.55 375 183.333C375 151.117 348.883 125 316.667 125C284.45 125 258.333 151.117 258.333 183.333V195.238C258.333 209.045 247.14 220.238 233.333 220.238C219.526 220.238 208.333 209.045 208.333 195.238V183.333ZM475 250C475 171.76 538.427 108.333 616.667 108.333C694.907 108.333 758.333 171.76 758.333 250C758.333 328.24 694.907 391.667 616.667 391.667H66.6666C52.8596 391.667 41.6666 380.473 41.6666 366.667C41.6666 352.86 52.8596 341.667 66.6666 341.667H616.667C667.293 341.667 708.333 300.626 708.333 250C708.333 199.374 667.293 158.333 616.667 158.333C566.04 158.333 525 199.374 525 250V266.667C525 280.474 513.807 291.667 500 291.667C486.193 291.667 475 280.474 475 266.667V250ZM108.333 466.667C108.333 452.86 119.526 441.667 133.333 441.667H616.667C694.907 441.667 758.333 505.093 758.333 583.333C758.333 661.573 694.907 725 616.667 725C538.427 725 475 661.573 475 583.333V566.667C475 552.86 486.193 541.667 500 541.667C513.807 541.667 525 552.86 525 566.667V583.333C525 633.96 566.04 675 616.667 675C667.293 675 708.333 633.96 708.333 583.333C708.333 532.707 667.293 491.667 616.667 491.667H133.333C119.526 491.667 108.333 480.473 108.333 466.667Z" fill="#555964"/>
</svg>
