<svg width="800" height="800" viewBox="0 0 800 800" fill="none" xmlns="http://www.w3.org/2000/svg">
<g clip-path="url(#clip0_16_10)">
<path d="M166.667 56.1667C162.42 56.1667 158.591 58.725 156.966 62.6486C155.341 66.5722 156.239 71.0884 159.242 74.0914C162.503 77.3522 167.295 81.0626 172.47 85.0703C173.667 85.997 174.884 86.9395 176.108 87.896C182.989 93.275 191.216 99.9285 200.369 108.667C218.626 126.099 240.865 152.12 262.794 192.891C306.707 274.53 349.68 415.88 356.167 666.803V666.921V667.048V667.175V667.302V667.429V667.556V667.683V667.81V667.937V668.064V668.191V668.318V668.445V668.572V668.699V668.826V668.953V669.08V669.207V669.334V669.462V669.589V669.716V669.843V669.97V670.097V670.224V670.352V670.479V670.606V670.733V670.861V670.988V671.115V671.242V671.369V671.497V671.624V671.751V671.879V672.006V672.133V672.26V672.388V672.515V672.642V672.77V672.897V673.025V673.152V673.279V673.407V673.534V673.661V673.789V673.916V674.044V674.171V674.299V674.426V674.554V674.681V674.809V674.936V675.064V675.191V675.319V675.446V675.574V675.701V675.829V675.957V676.084V676.212V676.339V676.467V676.595V676.722V676.85V676.978V677.105V677.233V677.361V677.488V677.616V677.744V677.872V677.999V678.127V678.255V678.383V678.51V678.638V678.766V678.894V679.022V679.149V679.277V679.405V679.533V679.661V679.789V679.917V680.045V680.173V680.3V680.428V680.556V680.684V680.812V680.94V681.068V681.196V681.324V681.452V681.58V681.708V681.837V681.965V682.093V682.221V682.349V682.477V682.605V682.733V682.861V682.99V683.118V683.246V683.374V683.502V683.631V683.759V683.887V684.015V684.144V684.272V684.4V684.529V684.657V684.785V684.914V685.042V685.17V685.299V685.427V685.555V685.684V685.812V685.941V686.069V686.198V686.326V686.455V686.583V686.712V686.84V686.969V687.097V687.226V687.354V687.483V687.612V687.74V687.869V687.997V688.126V688.255V688.383V688.512V688.641V688.77V688.898V689.027V689.156V689.284V689.413V689.542V689.671V689.8V689.928V690.057V690.186V690.315V690.444V690.573V690.702V690.831V690.96V691.089V691.218V691.346V691.475V691.604V691.733V691.862V691.992V692.121V692.25V692.379V692.508V692.637V692.766V692.895V693.024V693.154V693.283V693.412V693.541V693.67V693.8V693.929V694.058V694.187V694.317V694.446V694.575V694.705V694.834V694.963V695.093V695.222V695.351V695.481V695.61V695.74V695.869V695.999V696.128V696.258V696.387V696.517V696.646V696.776V696.905V697.035V697.165V697.294V697.424V697.554V697.683V697.813V697.943V698.072V698.202V698.332V698.461V698.591V698.721V698.851V698.981V699.11V699.24V699.37V699.5V699.63V699.76V699.89V700.02V700.15V700.28V700.41V700.54V700.67V700.8V700.93V701.06V701.19V701.32V701.45V701.58V701.71V701.84V701.971V702.101V702.231V702.361V702.491V702.622V702.752V702.882V703.013V703.143V703.273V703.404V703.534V703.664V703.795V703.925V704.056V704.186V704.316V704.447V704.577V704.708V704.838V704.969V705.1V705.23V705.361V705.491V705.622V705.753V705.883V706.014V706.145V706.275V706.406V706.537V706.668V706.798V706.929V707.06V707.191V707.322V707.452V707.583V707.714V707.845V707.976V708.107V708.238V708.369V708.5V708.631V708.762V708.893V709.024V709.155V709.286V709.417V709.549V709.68V709.811V709.942V710.073V710.204V710.336V710.467V710.598V710.73V710.861V710.992V711.124V711.255V711.386V711.518V711.649V711.781V711.912V712.044V712.175V712.307V712.438V712.57V712.701V712.833V712.964V713.096V713.228V713.359V713.491V713.623V713.754V713.886V714.018V714.15V714.281V714.413V714.545V714.677V714.809V714.941V715.073V715.204V715.336V715.468V715.6V715.732V715.864V715.996V716.128V716.26V716.393V716.525V716.657V716.789V716.921V717.053V717.185V717.318V717.45V717.582V717.715V717.847V717.979V718.111V718.244V718.376V718.509V718.641V718.773V718.906V719.038V719.171V719.303V719.436V719.569V719.701V719.834V719.966V720.099V720.232V720.364V720.497V720.63V720.762V720.895V721.028V721.161V721.294V721.426V721.559V721.692V721.825V721.958V722.091V722.224V722.357V722.49V722.623V722.756V722.889V723.022V723.155V723.288V723.421V723.555V723.688V723.821V723.954V724.087V724.221V724.354V724.487V724.621V724.754V724.887V725.021V725.154V725.288V725.421V725.555V725.688V725.822V725.955V726.089V726.222V726.356V726.489V726.623V726.757V726.89V727.024V727.158V727.292V727.425V727.559V727.693V727.827V727.961V728.095V728.229V728.362V728.496V728.63V728.764V728.898V729.032V729.167V729.301V729.435V729.569V729.703V729.837V729.971V730.106V730.24V730.374V730.508V730.643V730.777V730.911V731.046V731.18V731.314V731.449V731.583V731.718V731.852V731.987V732.121V732.256V732.391V732.525V732.66V732.794V732.929V733.064V733.199V733.333C356.167 739.132 360.868 743.833 366.667 743.833H466.667C472.466 743.833 477.167 739.132 477.167 733.333C477.167 401.238 418.79 231.613 349.885 144.965C280.221 57.3626 201.132 56.1667 166.667 56.1667ZM640.758 174.091C643.797 171.052 644.677 166.468 642.98 162.52C641.282 158.571 637.35 156.056 633.054 156.17C594.84 157.188 557.4 167.176 523.757 185.328C490.115 203.481 461.211 229.289 439.38 260.67C437.321 263.631 436.925 267.442 438.332 270.763C456.062 312.609 468.366 356.551 474.944 401.52C475.676 406.525 479.872 410.296 484.927 410.492C489.981 410.688 494.457 407.253 495.574 402.319C514.882 317.07 546.05 265.411 574.393 232.711C588.601 216.318 602.245 204.521 613.659 195.529C617.889 192.197 621.749 189.298 625.309 186.624C626.608 185.649 627.866 184.704 629.088 183.779C633.464 180.465 637.631 177.218 640.758 174.091ZM67.0863 289.508C62.7664 289.336 58.7821 291.828 57.0481 295.789C55.3142 299.749 56.1849 304.368 59.242 307.425C62.4071 310.59 66.6822 314.21 71.8146 318.556C89.9538 333.917 118.803 358.347 147.221 403.815C183.383 461.674 218.196 553.349 222.833 700.165V700.188V700.25V700.313V700.375V700.438V700.501V700.563V700.626V700.688V700.751V700.814V700.877V700.939V701.002V701.065V701.128V701.19V701.253V701.316V701.379V701.442V701.504V701.567V701.63V701.693V701.756V701.819V701.882V701.945V702.008V702.071V702.134V702.197V702.26V702.323V702.386V702.449V702.512V702.575V702.638V702.701V702.764V702.828V702.891V702.954V703.017V703.08V703.143V703.207V703.27V703.333V703.397V703.46V703.523V703.586V703.65V703.713V703.776V703.84V703.903V703.967V704.03V704.093V704.157V704.22V704.284V704.347V704.411V704.474V704.538V704.601V704.665V704.728V704.792V704.856V704.919V704.983V705.046V705.11V705.174V705.237V705.301V705.365V705.428V705.492V705.556V705.62V705.683V705.747V705.811V705.875V705.938V706.002V706.066V706.13V706.194V706.258V706.321V706.385V706.449V706.513V706.577V706.641V706.705V706.769V706.833V706.897V706.961V707.025V707.089V707.153V707.217V707.281V707.345V707.409V707.473V707.537V707.601V707.665V707.73V707.794V707.858V707.922V707.986V708.05V708.115V708.179V708.243V708.307V708.372V708.436V708.5V708.564V708.629V708.693V708.757V708.822V708.886V708.95V709.015V709.079V709.143V709.208V709.272V709.337V709.401V709.466V709.53V709.594V709.659V709.723V709.788V709.852V709.917V709.981V710.046V710.11V710.175V710.24V710.304V710.369V710.433V710.498V710.563V710.627V710.692V710.756V710.821V710.886V710.951V711.015V711.08V711.145V711.209V711.274V711.339V711.404V711.468V711.533V711.598V711.663V711.727V711.792V711.857V711.922V711.987V712.052V712.116V712.181V712.246V712.311V712.376V712.441V712.506V712.571V712.636V712.701V712.766V712.83V712.895V712.96V713.025V713.09V713.155V713.22V713.285V713.35V713.416V713.481V713.546V713.611V713.676V713.741V713.806V713.871V713.936V714.001V714.066V714.132V714.197V714.262V714.327V714.392V714.457V714.523V714.588V714.653V714.718V714.783V714.849V714.914V714.979V715.044V715.11V715.175V715.24V715.306V715.371V715.436V715.501V715.567V715.632V715.697V715.763V715.828V715.894V715.959V716.024V716.09V716.155V716.22V716.286V716.351V716.417V716.482V716.548V716.613V716.679V716.744V716.809V716.875V716.94V717.006V717.071V717.137V717.202V717.268V717.333V717.399V717.465V717.53V717.596V717.661V717.727V717.792V717.858V717.924V717.989V718.055V718.12V718.186V718.252V718.317V718.383V718.449V718.514V718.58V718.646V718.711V718.777V718.843V718.908V718.974V719.04V719.105V719.171V719.237V719.303V719.368V719.434V719.5V719.566V719.631V719.697V719.763V719.829V719.894V719.96V720.026V720.092V720.158V720.224V720.289V720.355V720.421V720.487V720.553V720.619V720.684V720.75V720.816V720.882V720.948V721.014V721.08V721.146V721.211V721.277V721.343V721.409V721.475V721.541V721.607V721.673V721.739V721.805V721.871V721.937V722.003V722.069V722.135V722.201V722.267V722.333V722.399V722.465V722.531V722.597V722.663V722.729V722.795V722.861V722.927V722.993V723.059V723.125V723.191V723.257V723.323V723.389V723.455V723.521V723.587V723.654V723.72V723.786V723.852V723.918V723.984V724.05V724.116V724.182V724.249V724.315V724.381V724.447V724.513V724.579V724.645V724.711V724.778V724.844V724.91V724.976V725.042V725.108V725.175V725.241V725.307V725.373V725.439V725.506V725.572V725.638V725.704V725.77V725.837V725.903V725.969V726.035V726.102V726.168V726.234V726.3V726.366V726.433V726.499V726.565V726.631V726.698V726.764V726.83V726.897V726.963V727.029V727.095V727.162V727.228V727.294V727.36V727.427V727.493V727.559V727.626V727.692V727.758V727.825V727.891V727.957V728.023V728.09V728.156V728.222V728.289V728.355V728.421V728.488V728.554V728.62V728.687V728.753V728.819V728.886V728.952V729.018V729.085V729.151V729.217V729.284V729.35V729.416V729.483V729.549V729.616V729.682V729.748V729.815V729.881V729.947V730.014V730.08V730.146V730.213V730.279V730.346V730.412V730.478V730.545V730.611V730.677V730.744V730.81V730.877V730.943V731.009V731.076V731.142V731.209V731.275V731.341V731.408V731.474V731.541V731.607V731.673V731.74V731.806V731.872V731.939V732.005V732.072V732.138V732.205V732.271V732.337V732.404V732.47V732.536V732.603V732.669V732.736V732.802V732.869V732.935V733.001V733.068V733.134V733.201V733.267V733.333C222.833 739.132 227.534 743.833 233.333 743.833H333.333C339.132 743.833 343.833 739.132 343.833 733.333C343.833 591.315 322.963 482.501 277.726 407.969C231.984 332.603 161.939 293.303 67.0863 289.508ZM740.758 307.425C743.761 304.422 744.659 299.905 743.034 295.982C741.409 292.058 737.58 289.5 733.333 289.5C658.662 289.5 489.5 371.685 489.5 733.333C489.5 739.132 494.201 743.833 500 743.833H600C605.799 743.833 610.5 739.132 610.5 733.333C610.5 584.564 636.282 485.043 665.271 419.409C694.146 354.036 726.419 321.763 740.673 307.51L740.758 307.425Z" stroke="#555964" stroke-width="21" stroke-linejoin="round"/>
</g>
<defs>
<clipPath id="clip0_16_10">
<rect width="800" height="800" fill="white"/>
</clipPath>
</defs>
</svg>
