<svg width="800" height="800" viewBox="0 0 800 800" fill="none" xmlns="http://www.w3.org/2000/svg">
<path d="M688.72 317.872C690.577 307.911 691.503 297.902 691.503 287.989C691.503 216.309 646.044 153.639 579.295 130.763C554.467 53.0766 482.739 0 400 0C317.261 0 245.508 53.0766 220.703 130.763C153.931 153.614 108.495 216.309 108.495 287.989C108.495 297.902 109.423 307.911 111.255 317.872C72.4844 353.517 50.5609 403.102 50.5609 456.202C50.5609 560.133 135.106 644.678 239.037 644.678C259.692 644.678 279.858 641.358 299.242 634.814C321.777 650.781 347.802 661.108 374.998 665.063V800H387.498H412.498H424.998V665.064C452.195 661.109 478.222 650.781 500.755 634.816C520.116 641.359 540.306 644.68 560.959 644.68C664.891 644.68 749.436 560.134 749.436 456.203C749.439 403.1 727.491 353.516 688.72 317.872ZM560.962 594.678C542.066 594.678 523.731 590.919 506.397 583.497L492.187 577.392L480.37 587.402C461.131 603.711 437.377 613.72 412.498 616.259V550.83L510.228 439.159L491.406 422.705L412.5 512.891V420.8L491.309 330.713L472.486 314.258L412.5 382.812V241.65H387.5V382.836L327.491 314.256L308.667 330.711L387.5 420.802V512.892L308.594 422.706L289.77 439.161L387.5 550.83V616.259C362.597 613.72 338.867 603.711 319.605 587.402L307.812 577.392L293.58 583.495C276.27 590.917 257.911 594.677 239.039 594.677C162.672 594.677 100.562 532.567 100.562 456.2C100.562 413.206 120.192 373.339 154.395 346.825L167.775 336.425L163.112 320.166C160.036 309.472 158.498 298.633 158.498 287.987C158.498 234.325 194.9 187.889 247.023 175.072L261.867 171.409L265.383 156.541C280.225 93.7984 335.572 50 400 50C464.428 50 519.775 93.7984 534.595 156.544L538.111 171.413L552.955 175.075C605.078 187.892 641.505 234.328 641.505 287.991C641.505 298.636 639.942 309.475 636.866 320.169L632.203 336.428L645.583 346.828C679.811 373.342 699.441 413.209 699.441 456.203C699.439 532.569 637.305 594.678 560.962 594.678Z" fill="#555964"/>
</svg>
