<svg width="800" height="800" viewBox="0 0 800 800" fill="none" xmlns="http://www.w3.org/2000/svg">
<path d="M83.3334 183.333L103.871 203.871C122.735 222.735 148.321 233.333 175 233.333C201.679 233.333 227.265 222.735 246.129 203.871L253.871 196.129C272.735 177.265 298.321 166.667 325 166.667C351.68 166.667 377.263 177.265 396.13 196.129L403.87 203.871C422.737 222.735 448.32 233.333 475 233.333C501.68 233.333 527.263 222.735 546.13 203.871L553.87 196.129C572.737 177.265 598.32 166.667 625 166.667C651.68 166.667 677.263 177.265 696.13 196.129L716.667 216.667M83.3334 383.333L103.871 403.87C122.735 422.737 148.321 433.333 175 433.333C201.679 433.333 227.265 422.737 246.129 403.87L253.871 396.13C272.735 377.263 298.321 366.667 325 366.667C351.68 366.667 377.263 377.263 396.13 396.13L403.87 403.87C422.737 422.737 448.32 433.333 475 433.333C501.68 433.333 527.263 422.737 546.13 403.87L553.87 396.13C572.737 377.263 598.32 366.667 625 366.667C651.68 366.667 677.263 377.263 696.13 396.13L716.667 416.667M83.3334 583.333L103.871 603.87C122.735 622.737 148.321 633.333 175 633.333C201.679 633.333 227.265 622.737 246.129 603.87L253.871 596.13C272.735 577.263 298.321 566.667 325 566.667C351.68 566.667 377.263 577.263 396.13 596.13L403.87 603.87C422.737 622.737 448.32 633.333 475 633.333C501.68 633.333 527.263 622.737 546.13 603.87L553.87 596.13C572.737 577.263 598.32 566.667 625 566.667C651.68 566.667 677.263 577.263 696.13 596.13L716.667 616.667" stroke="#555964" stroke-width="66.6667" stroke-linecap="round" stroke-linejoin="round"/>
</svg>
